<?xml version="1.0" encoding="UTF-8" standalone="no"?>
<!DOCTYPE svg PUBLIC "-//W3C//DTD SVG 1.1//EN" "http://www.w3.org/Graphics/SVG/1.1/DTD/svg11.dtd">
<svg xmlns="http://www.w3.org/2000/svg" version="1.1" viewBox="0.00 0.00 329.00 51.00">
<ellipse fill="#e9e9e9" cx="0.00" cy="0.00" transform="translate(191.47,6.13) rotate(-0.5)" rx="5.30" ry="4.62"/>
<ellipse fill="#e9e9e9" cx="0.00" cy="0.00" transform="translate(243.70,6.13) rotate(1.5)" rx="5.27" ry="4.61"/>
<path fill="#e9e9e9" d="
  M 0.00 27.91
  L 0.00 22.48
  L 0.25 21.28
  Q 0.36 20.74 0.92 20.73
  Q 9.28 20.67 17.64 20.88
  Q 18.25 20.89 18.25 20.29
  L 18.25 2.87
  Q 18.25 2.25 18.87 2.25
  L 26.25 2.25
  A 0.75 0.75 0.0 0 1 27.00 3.00
  L 27.00 20.29
  A 0.60 0.59 0.0 0 0 27.60 20.88
  L 44.72 20.69
  A 0.78 0.78 0.0 0 1 45.50 21.47
  L 45.50 28.75
  Q 45.50 29.25 45.00 29.25
  L 27.53 29.25
  Q 27.06 29.25 27.05 29.72
  L 26.88 47.47
  A 0.59 0.59 0.0 0 1 26.28 48.06
  L 18.93 47.88
  Q 18.25 47.86 18.25 47.18
  L 18.25 29.73
  A 0.52 0.52 0.0 0 0 17.73 29.21
  L 0.90 29.33
  Q 0.40 29.33 0.26 28.85
  L 0.00 27.91
  Z"
/>
<path fill="#e9e9e9" d="
  M 171.93 21.06
  L 171.58 5.21
  Q 171.57 4.50 172.28 4.50
  L 179.39 4.50
  Q 180.03 4.50 180.03 5.14
  L 179.99 48.66
  A 0.26 0.26 0.0 0 1 179.72 48.92
  L 172.27 48.68
  A 0.63 0.63 0.0 0 1 171.66 48.01
  L 172.01 43.14
  Q 172.04 42.82 171.80 43.03
  C 168.72 45.81 166.51 48.63 161.95 49.24
  C 142.00 51.93 138.66 16.33 160.29 15.42
  C 165.46 15.20 168.19 17.95 171.63 21.20
  Q 171.94 21.49 171.93 21.06
  Z
  M 162.7568 41.8500
  A 9.64 8.94 89.9 0 0 171.6800 32.1944
  A 9.64 8.94 89.9 0 0 162.7232 22.5700
  A 9.64 8.94 89.9 0 0 153.8000 32.2256
  A 9.64 8.94 89.9 0 0 162.7568 41.8500
  Z"
/>
<path fill="#e9e9e9" d="
  M 92.28 20.88
  Q 87.86 34.64 82.70 48.14
  Q 82.50 48.66 81.94 48.71
  C 80.77 48.81 75.25 49.18 74.82 47.99
  Q 70.04 34.94 65.69 22.30
  A 0.59 0.59 0.0 0 0 64.55 22.49
  L 64.47 48.39
  Q 64.47 48.95 63.92 48.93
  L 56.54 48.67
  Q 56.00 48.65 56.00 48.11
  L 56.00 8.05
  A 0.72 0.72 0.0 0 1 56.70 7.33
  L 65.73 7.03
  A 0.78 0.77 -11.7 0 1 66.48 7.52
  L 78.58 37.93
  A 0.30 0.30 0.0 0 0 79.14 37.92
  L 91.23 7.56
  A 0.78 0.77 11.7 0 1 91.98 7.07
  L 101.29 7.32
  A 0.47 0.47 0.0 0 1 101.75 7.79
  L 101.75 48.25
  Q 101.75 48.75 101.25 48.75
  L 94.00 48.75
  A 0.75 0.75 0.0 0 1 93.25 48.00
  Q 93.27 36.36 93.20 24.50
  Q 93.18 22.76 92.59 20.88
  Q 92.43 20.41 92.28 20.88
  Z"
/>
<path fill="#e9e9e9" d="
  M 264.93 20.86
  A 0.34 0.34 0.0 0 0 265.56 21.00
  C 270.30 12.70 282.75 13.54 286.80 21.72
  C 289.71 27.60 288.53 40.53 288.53 48.19
  A 0.56 0.56 0.0 0 1 287.97 48.75
  L 280.55 48.75
  Q 280.04 48.75 280.04 48.24
  C 279.96 42.68 281.23 30.94 279.17 26.21
  C 275.65 18.17 264.57 22.55 264.51 31.02
  Q 264.44 39.75 264.56 48.29
  A 0.60 0.60 0.0 0 1 263.95 48.90
  L 256.82 48.69
  A 0.62 0.61 -89.5 0 1 256.22 48.07
  L 256.16 16.29
  A 0.58 0.57 89.0 0 1 256.71 15.71
  L 263.76 15.42
  A 0.71 0.71 0.0 0 1 264.49 16.07
  L 264.93 20.86
  Z"
/>
<path fill="#e9e9e9" d="
  M 138.48 41.94
  C 126.62 56.95 105.30 47.98 108.08 28.49
  C 110.87 8.98 143.24 11.56 140.31 33.20
  Q 140.23 33.75 139.68 33.75
  L 117.19 33.98
  A 1.39 1.38 80.0 0 0 115.90 35.83
  Q 118.85 44.25 126.68 41.96
  C 129.05 41.26 130.13 39.42 131.61 37.55
  Q 131.96 37.11 132.52 37.12
  L 139.11 37.30
  Q 139.73 37.32 139.75 37.94
  Q 139.83 40.23 138.48 41.94
  Z
  M 116.63 30.00
  L 131.81 29.86
  A 0.43 0.43 0.0 0 0 132.24 29.43
  L 132.24 29.30
  A 7.65 7.34 -0.5 0 0 124.53 22.03
  L 123.79 22.03
  A 7.65 7.34 -0.5 0 0 116.20 29.44
  L 116.20 29.57
  A 0.43 0.43 0.0 0 0 116.63 30.00
  Z"
/>
<rect fill="#e9e9e9" x="-4.26" y="-16.67" transform="translate(191.49,32.21) rotate(-0.1)" width="8.52" height="33.34" rx="0.67"/>
<path fill="#e9e9e9" d="
  M 233.44 37.80
  C 228.15 53.99 204.30 52.96 201.52 35.98
  C 200.78 31.46 201.18 26.70 203.55 22.75
  C 209.59 12.72 225.72 12.69 231.95 23.07
  Q 233.39 25.47 233.25 28.03
  Q 233.23 28.47 232.79 28.46
  L 225.83 28.39
  A 0.91 0.90 -15.8 0 1 225.09 27.98
  C 222.44 23.91 219.77 20.86 214.42 23.16
  C 201.85 28.57 215.59 53.77 225.14 36.12
  A 0.87 0.86 20.4 0 1 226.09 35.69
  Q 228.81 36.27 231.66 35.75
  A 1.58 1.58 0.0 0 1 233.44 37.80
  Z"
/>
<rect fill="#e9e9e9" x="239.50" y="15.60" width="8.28" height="33.14" rx="0.50"/>
<path fill="#e9e9e9" d="
  M 298.19 20.94
  C 302.47 15.50 310.41 14.41 316.28 16.10
  C 323.76 18.24 327.26 24.23 327.58 31.76
  A 1.88 1.87 -1.8 0 1 325.73 33.72
  L 303.65 34.04
  Q 303.03 34.05 302.93 34.67
  C 301.99 40.38 308.94 43.63 313.56 41.97
  C 315.73 41.19 316.98 39.35 318.32 37.51
  Q 318.61 37.12 319.09 37.13
  L 325.79 37.30
  A 1.21 1.21 0.0 0 1 326.82 39.09
  C 321.42 48.92 310.14 52.88 300.90 46.17
  C 293.52 40.81 292.49 28.17 298.19 20.94
  Z
  M 303.39 29.97
  L 318.55 29.89
  A 0.44 0.44 0.0 0 0 318.99 29.45
  L 318.99 29.33
  A 7.66 7.34 -0.3 0 0 311.29 22.03
  L 310.57 22.03
  A 7.66 7.34 -0.3 0 0 302.95 29.41
  L 302.95 29.53
  A 0.44 0.44 0.0 0 0 303.39 29.97
  Z"
/>
</svg>
